<svg width="68" height="67" viewBox="0 0 68 67" fill="none" xmlns="http://www.w3.org/2000/svg">
<path d="M58.9127 15.6808C58.7721 15.3425 58.5662 15.0352 58.3069 14.7763L49.9319 6.40134C49.6744 6.1347 49.3663 5.92203 49.0257 5.77572C48.6851 5.62941 48.3188 5.5524 47.9481 5.54918C47.5774 5.54596 47.2098 5.61659 46.8668 5.75696C46.5237 5.89733 46.212 6.10462 45.9499 6.36673C45.6877 6.62885 45.4804 6.94054 45.3401 7.28363C45.1997 7.62672 45.1291 7.99432 45.1323 8.365C45.1355 8.73567 45.2125 9.10199 45.3588 9.44259C45.5052 9.78318 45.7178 10.0912 45.9845 10.3488L49.5941 13.9584H22.8332C19.1312 13.9584 15.5808 15.429 12.9631 18.0467C10.3454 20.6644 8.87484 24.2147 8.87484 27.9167V33.5C8.87484 34.2404 9.16896 34.9505 9.6925 35.474C10.216 35.9976 10.9261 36.2917 11.6665 36.2917C12.4069 36.2917 13.117 35.9976 13.6405 35.474C14.164 34.9505 14.4582 34.2404 14.4582 33.5V27.9167C14.4582 25.6955 15.3405 23.5653 16.9111 21.9947C18.4818 20.4241 20.612 19.5417 22.8332 19.5417H49.5941L45.9845 23.1513C45.4759 23.6778 45.1946 24.383 45.2009 25.115C45.2073 25.847 45.5009 26.5471 46.0185 27.0647C46.5361 27.5823 47.2363 27.8759 47.9682 27.8823C48.7002 27.8887 49.4054 27.6073 49.9319 27.0987L58.3069 18.7238C58.8305 18.2003 59.1247 17.4904 59.1248 16.75M58.9127 15.6808C59.0519 16.0172 59.124 16.3776 59.1248 16.7417L58.9127 15.6808ZM9.087 49.1808C8.87566 49.6911 8.82041 50.2525 8.92824 50.7942C9.03608 51.3359 9.30215 51.8334 9.69279 52.2238L18.0678 60.5988C18.5943 61.1073 19.2995 61.3887 20.0315 61.3823C20.7634 61.3759 21.4636 61.0823 21.9812 60.5647C22.4988 60.0471 22.7924 59.347 22.7988 58.615C22.8051 57.883 22.5237 57.1778 22.0152 56.6513L18.4056 53.0417H45.1665C48.8685 53.0417 52.4188 51.5711 55.0365 48.9534C57.6542 46.3357 59.1248 42.7854 59.1248 39.0834V33.5C59.1248 32.7596 58.8307 32.0496 58.3072 31.526C57.7836 31.0025 57.0736 30.7084 56.3332 30.7084C55.5928 30.7084 54.8827 31.0025 54.3592 31.526C53.8356 32.0496 53.5415 32.7596 53.5415 33.5V39.0834C53.5415 41.3046 52.6591 43.4348 51.0885 45.0054C49.5179 46.576 47.3877 47.4584 45.1665 47.4584H18.4056L22.0152 43.8487C22.2818 43.5912 22.4945 43.2832 22.6408 42.9426C22.7871 42.602 22.8641 42.2357 22.8674 41.865C22.8706 41.4943 22.8 41.1267 22.6596 40.7836C22.5192 40.4405 22.3119 40.1288 22.0498 39.8667C21.7877 39.6046 21.476 39.3973 21.1329 39.257C20.7898 39.1166 20.4222 39.046 20.0515 39.0492C19.6809 39.0524 19.3146 39.1294 18.974 39.2757C18.6334 39.422 18.3253 39.6347 18.0678 39.9013L9.69279 48.2763M9.087 49.1808C9.2266 48.845 9.43049 48.5396 9.68721 48.2819L9.087 49.1808Z" fill="#4AAADB"/>
</svg>
