<svg width="40" height="40" viewBox="0 0 40 40" fill="none" xmlns="http://www.w3.org/2000/svg">
<path d="M5 10L7.86833 27.215C7.99813 27.9933 8.39983 28.7003 9.00196 29.2103C9.60409 29.7203 10.3676 30.0001 11.1567 30H20M33.6033 18.38L35 10" stroke="#4AAADB" stroke-width="3" stroke-linecap="round" stroke-linejoin="round"/>
<path d="M5.81055 14.9417C6.09055 14.9761 6.3761 14.9955 6.66721 15C7.98388 15.015 9.23221 14.7033 10.0005 14.1667C10.7689 13.6333 12.0172 13.3217 13.3339 13.3333C14.6505 13.3217 15.8989 13.6333 16.6672 14.1667C17.4355 14.7033 18.6839 15.015 20.0005 15C21.3172 15.015 22.5655 14.7033 23.3339 14.1667C24.1022 13.6333 25.3505 13.3217 26.6672 13.3333C27.9839 13.3217 29.2322 13.6333 30.0005 14.1667C30.7689 14.7033 32.0172 15.015 33.3339 15C33.6183 14.9978 33.8978 14.9789 34.1722 14.9433M26.6672 36.6667C26.6672 36.6667 26.6672 33.3333 31.6672 30" stroke="#4AAADB" stroke-width="3" stroke-linecap="round" stroke-linejoin="round"/>
<path d="M31.666 35C30.3399 35 29.0682 34.4732 28.1305 33.5355C27.1928 32.5979 26.666 31.3261 26.666 30C26.666 28.6739 27.1928 27.4021 28.1305 26.4645C29.0682 25.5268 30.3399 25 31.666 25H36.666V30C36.666 31.3261 36.1392 32.5979 35.2015 33.5355C34.2639 34.4732 32.9921 35 31.666 35Z" stroke="#4AAADB" stroke-width="3" stroke-linecap="round" stroke-linejoin="round"/>
</svg>
