<svg width="59" height="67" viewBox="0 0 59 67" fill="none" xmlns="http://www.w3.org/2000/svg">
<path d="M0.499878 32V26.1818C2.33654 26.1818 3.70245 25.697 4.59758 24.7273C5.49271 23.7576 7.36514 23.2727 10.2149 23.2727C13.0646 23.2727 14.938 23.7576 15.8351 24.7273C16.7321 25.697 18.0487 26.1818 19.7849 26.1818C21.6215 26.1818 22.9874 25.697 23.8826 24.7273C24.7777 23.7576 26.6501 23.2727 29.4999 23.2727C32.2549 23.2727 34.1283 23.7576 35.1201 24.7273C36.1119 25.697 37.4768 26.1818 39.2149 26.1818C41.0515 26.1818 42.3933 25.697 43.2401 24.7273C44.0869 23.7576 45.9351 23.2727 48.7849 23.2727C51.6346 23.2727 53.508 23.7576 54.4051 24.7273C55.3021 25.697 56.6671 26.1818 58.4999 26.1818V32C55.7449 32 53.8724 31.5152 52.8826 30.5455C51.8927 29.5758 50.5268 29.0909 48.7849 29.0909C47.0429 29.0909 45.7263 29.5758 44.8351 30.5455C43.9438 31.5152 42.0704 32 39.2149 32C36.4599 32 34.5874 31.5152 33.5976 30.5455C32.6077 29.5758 31.2418 29.0909 29.4999 29.0909C27.6632 29.0909 26.2983 29.5758 25.4051 30.5455C24.5119 31.5152 22.6385 32 19.7849 32C16.9313 32 15.083 31.5152 14.2401 30.5455C13.3971 29.5758 12.0554 29.0909 10.2149 29.0909C8.37434 29.0909 7.00941 29.5758 6.12008 30.5455C5.23074 31.5152 3.35734 32 0.499878 32ZM0.499878 20.3636V14.5455C2.33654 14.5455 3.70245 14.0606 4.59758 13.0909C5.49271 12.1212 7.36514 11.6364 10.2149 11.6364C12.9699 11.6364 14.8191 12.1212 15.7626 13.0909C16.706 14.0606 18.0468 14.5455 19.7849 14.5455C21.6215 14.5455 22.9865 14.0606 23.8797 13.0909C24.7729 12.1212 26.6463 11.6364 29.4999 11.6364C32.2549 11.6364 34.1157 12.1212 35.0824 13.0909C36.049 14.0606 37.3782 14.5455 39.0699 14.5455C40.9065 14.5455 42.2715 14.0606 43.1647 13.0909C44.0579 12.1212 45.9313 11.6364 48.7849 11.6364C51.5399 11.6364 53.4133 12.1212 54.4051 13.0909C55.3969 14.0606 56.7618 14.5455 58.4999 14.5455V20.3636C55.6482 20.3636 53.7506 19.8788 52.8072 18.9091C51.8637 17.9394 50.5229 17.4545 48.7849 17.4545C47.0468 17.4545 45.7302 17.9394 44.8351 18.9091C43.9399 19.8788 42.0665 20.3636 39.2149 20.3636C36.4599 20.3636 34.5874 19.8788 33.5976 18.9091C32.6077 17.9394 31.2418 17.4545 29.4999 17.4545C27.6632 17.4545 26.3215 17.9394 25.4747 18.9091C24.6279 19.8788 22.7796 20.3636 19.9299 20.3636C17.0801 20.3636 15.1835 19.8788 14.2401 18.9091C13.2966 17.9394 11.9549 17.4545 10.2149 17.4545C8.47488 17.4545 7.10994 17.9394 6.12008 18.9091C5.13021 19.8788 3.25681 20.3636 0.499878 20.3636ZM0.499878 8.72727V2.90909C2.33654 2.90909 3.70245 2.42424 4.59758 1.45455C5.49271 0.484848 7.36514 0 10.2149 0C12.9699 0 14.8191 0.484848 15.7626 1.45455C16.706 2.42424 18.0468 2.90909 19.7849 2.90909C21.6215 2.90909 22.9865 2.42424 23.8797 1.45455C24.7729 0.484848 26.6463 0 29.4999 0C32.2549 0 34.1157 0.484848 35.0824 1.45455C36.049 2.42424 37.3782 2.90909 39.0699 2.90909C40.9065 2.90909 42.2715 2.42424 43.1647 1.45455C44.0579 0.484848 45.9313 0 48.7849 0C51.5399 0 53.4133 0.484848 54.4051 1.45455C55.3969 2.42424 56.7618 2.90909 58.4999 2.90909V8.72727C55.6482 8.72727 53.7506 8.24242 52.8072 7.27273C51.8637 6.30303 50.5229 5.81818 48.7849 5.81818C47.0468 5.81818 45.7302 6.30303 44.8351 7.27273C43.9399 8.24242 42.0665 8.72727 39.2149 8.72727C36.4599 8.72727 34.5874 8.24242 33.5976 7.27273C32.6077 6.30303 31.2418 5.81818 29.4999 5.81818C27.6632 5.81818 26.3215 6.30303 25.4747 7.27273C24.6279 8.24242 22.7796 8.72727 19.9299 8.72727C17.0801 8.72727 15.1835 8.24242 14.2401 7.27273C13.2966 6.30303 11.9549 5.81818 10.2149 5.81818C8.47488 5.81818 7.10994 6.30303 6.12008 7.27273C5.13021 8.24242 3.25681 8.72727 0.499878 8.72727Z" fill="#4AAADB"/>
<path d="M10.4999 39L10.4999 55M10.4999 55L17.4999 48M10.4999 55L3.49988 48" stroke="#4AAADB" stroke-width="4" stroke-linecap="round" stroke-linejoin="round"/>
<path d="M29.4999 49L29.4999 65M29.4999 65L36.4999 58M29.4999 65L22.4999 58" stroke="#4AAADB" stroke-width="4" stroke-linecap="round" stroke-linejoin="round"/>
<path d="M48.4999 39L48.4999 55M48.4999 55L55.4999 48M48.4999 55L41.4999 48" stroke="#4AAADB" stroke-width="4" stroke-linecap="round" stroke-linejoin="round"/>
</svg>
