<svg width="55" height="65" viewBox="0 0 55 65" fill="none" xmlns="http://www.w3.org/2000/svg">
<path d="M52.9853 18.8856L47.5439 20.6437L50.9012 25.2486C51.0786 25.4781 51.2081 25.7407 51.2818 26.0209C51.3556 26.301 51.3722 26.5931 51.3306 26.8798C51.2891 27.1664 51.1902 27.4419 51.0399 27.6899C50.8896 27.9378 50.6909 28.1533 50.4556 28.3235C50.2202 28.4938 49.953 28.6153 49.6696 28.6809C49.3863 28.7466 49.0926 28.755 48.806 28.7057C48.5193 28.6564 48.2455 28.5504 48.0006 28.394C47.7558 28.2375 47.545 28.0338 47.3806 27.7948L44.0314 23.1899L40.6741 27.7948C40.3283 28.2421 39.821 28.5374 39.26 28.618C38.699 28.6986 38.1286 28.5581 37.67 28.2264C37.2114 27.8947 36.9008 27.398 36.8044 26.8419C36.7079 26.2858 36.8331 25.7142 37.1535 25.2486L40.5108 20.6437L35.0694 18.8856C34.5203 18.7082 34.0644 18.3208 33.8022 17.8088C33.5399 17.2967 33.4927 16.7019 33.6709 16.1552C33.8492 15.6085 34.2382 15.1546 34.7526 14.8935C35.2669 14.6324 35.8643 14.5854 36.4134 14.7629L41.8548 16.5236V10.8351C41.8548 10.2604 42.0842 9.70922 42.4923 9.30282C42.9005 8.89642 43.4542 8.66811 44.0314 8.66811C44.6087 8.66811 45.1623 8.89642 45.5705 9.30282C45.9787 9.70922 46.208 10.2604 46.208 10.8351V16.5236L51.6494 14.7656C52.1985 14.5878 52.7961 14.6344 53.3107 14.8953C53.8252 15.1561 54.2147 15.6098 54.3933 16.1565C54.5718 16.7033 54.525 17.2982 54.263 17.8105C54.001 18.3228 53.5453 18.7106 52.9962 18.8884L52.9853 18.8856ZM26.6189 47.6746C26.618 49.2957 26.1607 50.884 25.2987 52.2592C24.4367 53.6345 23.2047 54.7415 21.7425 55.4546C20.2803 56.1677 18.6466 56.4583 17.0269 56.2934C15.4071 56.1285 13.8663 55.5147 12.5793 54.5216C11.2924 53.5286 10.3109 52.1962 9.74639 50.6758C9.18185 49.1553 9.05685 47.5077 9.38561 45.92C9.71437 44.3324 10.4837 42.8683 11.6062 41.6941C12.7288 40.5199 14.1595 39.6826 15.736 39.2774V30.3384C15.736 29.7637 15.9653 29.2125 16.3735 28.8061C16.7817 28.3997 17.3353 28.1714 17.9126 28.1714C18.4898 28.1714 19.0434 28.3997 19.4516 28.8061C19.8598 29.2125 20.0891 29.7637 20.0891 30.3384V39.2774C21.9573 39.7605 23.6118 40.8469 24.7934 42.3665C25.975 43.886 26.617 45.7529 26.6189 47.6746ZM22.2657 47.6746C22.2657 46.8174 22.0104 45.9795 21.5321 45.2667C21.0537 44.554 20.3739 43.9985 19.5784 43.6705C18.783 43.3424 17.9077 43.2566 17.0633 43.4238C16.2189 43.5911 15.4432 44.0038 14.8344 44.61C14.2256 45.2161 13.811 45.9884 13.6431 46.8291C13.4751 47.6698 13.5613 48.5412 13.8908 49.3332C14.2203 50.1251 14.7782 50.802 15.4941 51.2783C16.21 51.7545 17.0516 52.0087 17.9126 52.0087C19.0671 52.0087 20.1743 51.552 20.9907 50.7393C21.8071 49.9265 22.2657 48.8241 22.2657 47.6746ZM35.3251 47.6746C35.3233 50.606 34.5749 53.4891 33.1499 56.0543C31.7249 58.6195 29.6698 60.783 27.1768 62.3426C24.6838 63.9023 21.8343 64.8071 18.8947 64.9724C15.9551 65.1377 13.0214 64.5582 10.3678 63.2881C7.71424 62.0179 5.42751 60.0986 3.72138 57.7095C2.01526 55.3204 0.945471 52.5396 0.612028 49.6271C0.278586 46.7146 0.692381 43.7654 1.81473 41.0553C2.93707 38.3453 4.73132 35.9628 7.02971 34.1307V10.8351C7.02971 7.96148 8.1763 5.20552 10.2172 3.17354C12.2582 1.14156 15.0263 0 17.9126 0C20.7989 0 23.567 1.14156 25.6079 3.17354C27.6488 5.20552 28.7954 7.96148 28.7954 10.8351V34.1307C30.8333 35.7571 32.478 37.8186 33.6082 40.1629C34.7385 42.5071 35.3252 45.0743 35.3251 47.6746ZM30.972 47.6746C30.9703 45.5783 30.4604 43.5135 29.4856 41.6554C28.5107 39.7973 27.0999 38.201 25.3728 37.002C25.0839 36.8012 24.8484 36.5336 24.6863 36.2222C24.5242 35.9108 24.4405 35.5649 24.4423 35.2142V10.8351C24.4423 9.11094 23.7543 7.45737 22.5298 6.23818C21.3052 5.01899 19.6444 4.33406 17.9126 4.33406C16.1808 4.33406 14.5199 5.01899 13.2954 6.23818C12.0708 7.45737 11.3829 9.11094 11.3829 10.8351V35.2142C11.3829 35.5631 11.2983 35.9068 11.1363 36.2162C10.9743 36.5256 10.7397 36.7914 10.4524 36.9912C8.60957 38.2681 7.12855 39.9965 6.15231 42.0095C5.17606 44.0225 4.73756 46.252 4.87914 48.4829C5.02071 50.7138 5.73759 52.8707 6.96055 54.7453C8.18351 56.62 9.87125 58.149 11.8608 59.1849C13.8504 60.2207 16.0746 60.7284 18.3187 60.6589C20.5628 60.5894 22.751 59.945 24.6721 58.788C26.5931 57.631 28.1821 56.0004 29.2856 54.0537C30.3892 52.107 30.97 49.91 30.972 47.6746Z" fill="#4AAADB"/>
</svg>
