<svg width="40" height="40" viewBox="0 0 40 40" fill="none" xmlns="http://www.w3.org/2000/svg">
<path d="M19.9992 2.5V37.5M24.5086 6.25C23.1477 7.07027 21.5882 7.50254 19.9992 7.5C18.4102 7.50254 16.8508 7.07027 15.4898 6.25M15.4898 33.75C16.8518 32.9321 18.4105 32.5 19.9992 32.5C21.5879 32.5 23.1467 32.9321 24.5086 33.75M35.1547 11.25L4.84375 28.75M34.1609 17.0312C32.7713 16.2606 31.6176 15.1264 30.8234 13.7501C30.0291 12.3739 29.6243 10.8075 29.6523 9.21875M5.8375 22.9688C7.2271 23.7394 8.38082 24.8736 9.17506 26.2499C9.96929 27.6261 10.3741 29.1925 10.3461 30.7812M4.84375 11.25L35.1547 28.75M5.8375 17.0312C7.2271 16.2606 8.38082 15.1264 9.17506 13.7501C9.96929 12.3739 10.3741 10.8075 10.3461 9.21875M34.1609 22.9688C32.7713 23.7394 31.6176 24.8736 30.8234 26.2499C30.0291 27.6261 29.6243 29.1925 29.6523 30.7812" stroke="#4AAADB" stroke-width="3" stroke-linecap="round" stroke-linejoin="round"/>
</svg>
