<svg width="84" height="70" viewBox="0 0 84 70" fill="none" xmlns="http://www.w3.org/2000/svg">
<path d="M69.1011 35.2005L73.8395 44.4896M73.8395 44.4896L81.4458 59.4009C81.9754 60.3787 82.1791 62.5543 78.7568 63.4343C75.3346 64.3143 66.5751 66.0825 62.6232 66.8566C62.0121 67.3455 60.1787 66.8566 57.7343 60.9898C55.2898 55.1231 51.5823 47.5452 50.0341 44.4896H31.8227C30.8449 44.7747 28.8893 44.5384 28.8893 41.3117C28.8893 38.085 28.8893 31.5745 28.8893 28.7226C28.8486 28.0708 29.3782 26.7426 31.8227 26.6448C34.2672 26.547 63.0714 26.6041 77.1679 26.6448C78.0235 26.5633 79.7102 27.0115 79.6124 29.456C79.5146 31.9004 79.5717 38.3783 79.6124 41.3117C79.5717 41.9228 79.0257 43.2184 77.1679 43.5117C75.3101 43.8051 74.1749 44.2858 73.8395 44.4896Z" stroke="#4AAADB" stroke-width="4"/>
<path d="M24.367 32.9226H26.8893V37.9672H24.367C22.974 37.9672 21.8447 36.8379 21.8447 35.4449C21.8447 34.0519 22.974 32.9226 24.367 32.9226Z" stroke="#4AAADB" stroke-width="4"/>
<path d="M40.2562 26.6448V44.3673" stroke="#4AAADB" stroke-width="5"/>
<path d="M44.2896 32.3894H49.5453" stroke="#4AAADB" stroke-width="3"/>
<path d="M52.4786 32.3894H57.7343" stroke="#4AAADB" stroke-width="3"/>
<line x1="44.2896" y1="26.1448" x2="44.4118" y2="26.1448" stroke="black"/>
<line x1="46.4118" y1="16.5002" x2="46.4118" y2="26.6449" stroke="#4AAADB" stroke-width="4"/>
<path d="M33.7005 2H56.3454V3.91117C56.3454 10.1644 51.2762 15.2336 45.0229 15.2336C38.7697 15.2336 33.7005 10.1644 33.7005 3.91117V2Z" stroke="#4AAADB" stroke-width="4"/>
<path d="M42.0896 44.7341C41.3969 47.9527 43.0429 54.4632 55.1675 54.7565" stroke="#4AAADB" stroke-width="4"/>
<path d="M15.5511 31.1953L5.65092 26.1841" stroke="#4AAADB" stroke-width="3" stroke-linecap="round"/>
<path d="M15.5947 36.7896L6.52231 43.1783" stroke="#4AAADB" stroke-width="3" stroke-linecap="round"/>
<path d="M10.5557 33.9783H1.99997" stroke="#4AAADB" stroke-width="3" stroke-linecap="round"/>
</svg>
