<svg width="55" height="68" viewBox="0 0 55 68" fill="none" xmlns="http://www.w3.org/2000/svg">
<path d="M27.5 15.5C41.3071 15.5 52.4999 12.7018 52.4999 9.24999C52.4999 5.79822 41.3071 3 27.5 3C13.6929 3 2.5 5.79822 2.5 9.24999C2.5 12.7018 13.6929 15.5 27.5 15.5Z" stroke="#4AAADB" stroke-width="5" stroke-linecap="round" stroke-linejoin="round"/>
<path d="M27.4999 35.8125C28.7431 35.8125 29.9354 35.3186 30.8144 34.4395C31.6935 33.5605 32.1874 32.3682 32.1874 31.125C32.1874 28 27.4999 23.3125 27.4999 23.3125C27.4999 23.3125 22.8124 28 22.8124 31.125C22.8124 32.3682 23.3062 33.5605 24.1853 34.4395C25.0644 35.3186 26.2567 35.8125 27.4999 35.8125Z" stroke="#4AAADB" stroke-width="5" stroke-linecap="round" stroke-linejoin="round"/>
<path d="M49.3749 12.375V29.7093C51.3655 31.0531 52.4999 32.6031 52.4999 34.25C52.4999 39.4281 41.3062 43.625 27.5 43.625C13.6937 43.625 2.5 39.4281 2.5 34.25C2.5 32.6031 3.63437 31.0531 5.62499 29.7093V12.375" stroke="#4AAADB" stroke-width="5" stroke-linecap="round" stroke-linejoin="round"/>
<path d="M49.3749 38.9373V51.5841C51.3655 52.9279 52.4999 54.4779 52.4999 56.1247C52.4999 61.3028 41.3062 65.4997 27.5 65.4997C13.6937 65.4997 2.5 61.3028 2.5 56.1247C2.5 54.4779 3.63437 52.9279 5.62499 51.5841V38.9373" stroke="#4AAADB" stroke-width="5" stroke-linecap="round" stroke-linejoin="round"/>
</svg>
