<svg width="40" height="40" viewBox="0 0 40 40" fill="none" xmlns="http://www.w3.org/2000/svg">
<path d="M19.9993 9.99998C27.3631 9.99998 33.3327 8.5076 33.3327 6.66665C33.3327 4.8257 27.3631 3.33331 19.9993 3.33331C12.6356 3.33331 6.66602 4.8257 6.66602 6.66665C6.66602 8.5076 12.6356 9.99998 19.9993 9.99998Z" stroke="#4AAADB" stroke-width="3" stroke-linecap="round" stroke-linejoin="round"/>
<path d="M20 20.8333C20.663 20.8333 21.2989 20.5699 21.7678 20.1011C22.2366 19.6322 22.5 18.9963 22.5 18.3333C22.5 16.6666 20 14.1666 20 14.1666C20 14.1666 17.5 16.6666 17.5 18.3333C17.5 18.9963 17.7634 19.6322 18.2322 20.1011C18.7011 20.5699 19.337 20.8333 20 20.8333Z" stroke="#4AAADB" stroke-width="3" stroke-linecap="round" stroke-linejoin="round"/>
<path d="M31.666 8.33331V17.5783C32.7277 18.295 33.3327 19.1216 33.3327 20C33.3327 22.7616 27.3627 25 19.9993 25C12.636 25 6.66602 22.7616 6.66602 20C6.66602 19.1216 7.27102 18.295 8.33268 17.5783V8.33331" stroke="#4AAADB" stroke-width="3" stroke-linecap="round" stroke-linejoin="round"/>
<path d="M31.666 22.5V29.245C32.7277 29.9617 33.3327 30.7883 33.3327 31.6667C33.3327 34.4283 27.3627 36.6667 19.9993 36.6667C12.636 36.6667 6.66602 34.4283 6.66602 31.6667C6.66602 30.7883 7.27102 29.9617 8.33268 29.245V22.5" stroke="#4AAADB" stroke-width="3" stroke-linecap="round" stroke-linejoin="round"/>
</svg>
