<svg width="250" height="53" viewBox="0 0 250 53" fill="none" xmlns="http://www.w3.org/2000/svg">
<g clip-path="url(#clip0_26_378)">
<path d="M83.1918 25.5845H76.8686L71.3949 18.1062V25.5845H66.3458V8.12988H71.3949V14.7859L76.4439 8.12988H82.7671L76.0193 16.446L83.1918 25.5845Z" fill="white"/>
<path d="M102.57 25.5845H97.4424L96.3099 22.6676H89.4677L88.3352 25.5845H83.2075L90.5216 8.12988H95.2561L102.57 25.5845ZM94.8314 18.9285L92.881 13.9481L90.9305 18.9285H94.8314Z" fill="white"/>
<path d="M121.115 25.5845H116.066V12.7069H111.835V18.5251C111.835 22.1867 110.702 24.7622 107.462 25.6466C106.251 25.9879 104.835 25.9879 103.404 25.8017V21.2247C104.222 21.3023 105.307 21.2713 105.873 20.9144C106.613 20.449 106.77 19.6732 106.77 18.6492V8.12988H121.115V25.5845Z" fill="white"/>
<path d="M138.81 19.7663C138.81 22.9314 136.671 25.5845 132.062 25.5845H124.056V8.12988H129.105V14.367H132.912C136.655 14.3515 138.81 16.5857 138.81 19.7663ZM133.745 19.7663C133.745 18.6182 132.77 18.1062 131.591 18.1062H129.121V21.4264H131.591C132.77 21.4264 133.745 20.8989 133.745 19.7663Z" fill="white"/>
<path d="M161.979 25.5844H156.93L156.081 16.4459L153.124 25.5844H148.908L145.967 16.4304L145.118 25.5689H140.069L141.752 8.11426H146.801L151.016 18.5095L155.232 8.11426H160.281L161.979 25.5844Z" fill="white"/>
<path d="M181.782 25.5845H176.655L175.522 22.6676H168.68L167.547 25.5845H162.42L169.734 8.12988H174.468L181.782 25.5845ZM174.044 18.9285L172.093 13.9481L170.143 18.9285H174.044Z" fill="white"/>
<path d="M194.429 8.12988V12.7069H189.789V25.5845H184.74V12.7069H180.099V8.12988H194.429Z" fill="white"/>
<path d="M211.29 13.9481C211.29 17.3304 209.136 20.1852 205.392 20.1852H201.601V25.5845H196.552V8.12988H204.558C209.151 8.12988 211.29 10.5658 211.29 13.9481ZM206.226 14.1498C206.226 12.8775 205.25 12.2724 204.071 12.2724H201.601V16.0116H204.071C205.25 16.0116 206.226 15.4531 206.226 14.1498Z" fill="white"/>
<path d="M231.723 16.8494C231.723 21.8918 227.381 25.9879 222.033 25.9879C216.686 25.9879 212.344 21.8763 212.344 16.8494C212.344 11.807 216.686 7.71094 222.033 7.71094C227.381 7.71094 231.723 11.807 231.723 16.8494ZM226.674 16.8494C226.674 14.3359 224.597 12.2724 222.033 12.2724C219.485 12.2724 217.393 14.3204 217.393 16.8494C217.393 19.3629 219.47 21.4264 222.033 21.4264C224.582 21.4264 226.674 19.3629 226.674 16.8494Z" fill="white"/>
<path d="M249.638 8.12988V25.5845H244.589V19.1457H238.691V25.5845H233.642V8.12988H238.691V14.5687H244.589V8.12988H249.638Z" fill="white"/>
<path d="M75.3429 45.0248H73.2195V36.1346H68.4378V45.0248H66.3143V34.04H75.3429V45.0248Z" fill="white"/>
<path d="M85.677 37.7016C85.677 39.5635 84.3243 41.3632 81.9649 41.3632H79.5898V45.0248H77.4663V34.04H81.4458C84.34 34.04 85.677 35.576 85.677 37.7016ZM83.5693 37.7016C83.5693 36.6776 82.7356 36.1346 81.7132 36.1346H79.5898V39.2687H81.7132C82.7356 39.2687 83.5693 38.617 83.5693 37.7016Z" fill="white"/>
<path d="M98.2761 39.5325C98.2761 42.6976 95.6493 45.2887 92.4405 45.2887C89.2318 45.2887 86.605 42.6976 86.605 39.5325C86.605 36.3674 89.2318 33.7764 92.4405 33.7764C95.665 33.7764 98.2761 36.3519 98.2761 39.5325ZM96.1684 39.5325C96.1684 37.5 94.5168 35.8709 92.4563 35.8709C90.3957 35.8709 88.7442 37.5 88.7442 39.5325C88.7442 41.565 90.3957 43.1941 92.4563 43.1941C94.5011 43.1941 96.1684 41.565 96.1684 39.5325Z" fill="white"/>
<path d="M108.5 41.7201C108.5 43.6129 107.069 45.0248 104.694 45.0248H99.7546V34.04H103.734C106.282 34.04 107.981 34.8934 107.981 36.9259C107.981 38.0275 107.383 38.8032 106.644 39.129C107.997 39.4704 108.5 40.5719 108.5 41.7201ZM101.862 38.2291H103.844C105.103 38.2291 105.826 37.9033 105.826 37.1896C105.826 36.3363 105.103 36.1501 103.844 36.1501H101.862V38.2291ZM106.377 41.4873C106.377 40.5099 105.496 40.0444 104.127 40.0444H101.878V42.9303H104.127C105.496 42.9303 106.377 42.4958 106.377 41.4873Z" fill="white"/>
<path d="M112.071 36.1346V38.4774H116.05V40.5719H112.071V42.9303H116.852V45.0248H109.947V34.04H116.837V36.1346H112.071Z" fill="white"/>
<path d="M126.935 37.7016C126.935 39.5635 125.582 41.3632 123.223 41.3632H120.832V45.0248H118.708V34.04H122.688C125.582 34.04 126.935 35.576 126.935 37.7016ZM124.811 37.7016C124.811 36.6776 123.978 36.1346 122.955 36.1346H120.832V39.2687H122.955C123.978 39.2687 124.811 38.617 124.811 37.7016Z" fill="white"/>
<path d="M130.379 36.1346V38.4774H134.359V40.5719H130.379V42.9303H135.161V45.0248H128.272V34.04H135.161V36.1346H130.379Z" fill="white"/>
<path d="M146.03 34.0399V45.0247H143.907V40.5718H139.125V45.0247H137.001V34.0399H139.125V38.4773H143.907V34.0244H146.03V34.0399Z" fill="white"/>
<path d="M159.164 39.5325C159.164 42.6976 156.537 45.2887 153.328 45.2887C150.12 45.2887 147.493 42.6976 147.493 39.5325C147.493 36.3674 150.12 33.7764 153.328 33.7764C156.537 33.7764 159.164 36.3519 159.164 39.5325ZM157.04 39.5325C157.04 37.5 155.389 35.8709 153.328 35.8709C151.268 35.8709 149.616 37.5 149.616 39.5325C149.616 41.565 151.268 43.1941 153.328 43.1941C155.389 43.1941 157.04 41.565 157.04 39.5325Z" fill="white"/>
<path d="M174.547 41.7201C174.547 43.6129 173.116 45.0248 170.741 45.0248H165.786V34.04H169.765C172.313 34.04 174.012 34.8934 174.012 36.9259C174.012 38.0275 173.415 38.8032 172.675 39.129C174.044 39.4704 174.547 40.5719 174.547 41.7201ZM167.909 38.2291H169.891C171.149 38.2291 171.873 37.9033 171.873 37.1896C171.873 36.3363 171.149 36.1501 169.891 36.1501H167.909V38.2291ZM172.424 41.4873C172.424 40.5099 171.543 40.0444 170.174 40.0444H167.925V42.9303H170.174C171.543 42.9303 172.424 42.4958 172.424 41.4873Z" fill="white"/>
<path d="M184.22 37.7016C184.22 39.5635 182.868 41.3632 180.508 41.3632H178.118V45.0248H175.994V34.04H179.974C182.883 34.04 184.22 35.576 184.22 37.7016ZM182.097 37.7016C182.097 36.6776 181.263 36.1346 180.241 36.1346H178.118V39.2687H180.241C181.279 39.2687 182.097 38.617 182.097 37.7016Z" fill="white"/>
<path d="M187.665 36.1346V38.4774H191.645V40.5719H187.665V42.9303H192.447V45.0248H185.557V34.04H192.447V36.1346H187.665Z" fill="white"/>
<path d="M207.028 45.0248H204.779L203.851 37.8258L200.925 45.0248H199.871L196.945 37.8258L196.017 45.0248H193.768L195.357 34.04H197.48L200.406 41.0995L203.316 34.04H205.439L207.028 45.0248Z" fill="white"/>
<path d="M210.74 36.1346V38.4774H214.719V40.5719H210.74V42.9303H215.522V45.0248H208.632V34.04H215.522V36.1346H210.74Z" fill="white"/>
<path d="M226.39 34.0399V45.0247H224.267V40.5718H219.485V45.0247H217.378V34.0399H219.501V38.4773H224.283V34.0244H226.39V34.0399Z" fill="white"/>
<path d="M230.637 36.1346V38.4774H234.617V40.5719H230.637V42.9303H235.419V45.0248H228.53V34.04H235.419V36.1346H230.637Z" fill="white"/>
<path d="M250 45.0248H247.751L246.823 37.8258L243.897 45.0248H242.843L239.918 37.8258L238.99 45.0248H236.74L238.329 34.04H240.452L243.378 41.0995L246.288 34.04H248.411L250 45.0248Z" fill="white"/>
<path d="M44.1679 7.52508C39.166 6.09768 33.5035 7.29235 29.5712 10.6281C22.9492 15.8102 19.0327 23.5523 11.4826 26.9812C9.62659 27.6794 7.6919 27.6638 5.93023 27.1053C1.14855 25.6313 -1.14792 20.3251 0.566566 15.6706C6.55939 -0.666957 32.025 -5.63183 44.1679 7.52508Z" fill="white"/>
<path d="M52.1895 26.4849C52.5355 52.5815 16.783 62.9767 2.64249 41.2088C20.2592 47.3373 24.4117 27.2762 33.5976 16.5086C39.0556 10.1163 49.7829 12.6763 51.576 20.8529C51.985 22.6681 52.1895 24.5455 52.1895 26.4849Z" fill="white"/>
</g>
<defs>
<clipPath id="clip0_26_378">
<rect width="250" height="53" fill="white"/>
</clipPath>
</defs>
</svg>
