<svg width="58" height="68" viewBox="0 0 58 68" fill="none" xmlns="http://www.w3.org/2000/svg">
<path d="M29 0L0 9.71429V38.8571C0 54.954 12.982 68 29 68C45.018 68 58 54.954 58 38.8571V9.71429L29 0ZM52.5625 38.8571C52.5625 51.9335 42.0122 62.5357 29 62.5357C15.9878 62.5357 5.4375 51.9335 5.4375 38.8571V13.8125L29 5.46429L52.5625 13.8125V38.8571Z" fill="#4AAADB"/>
<path d="M17.6435 29.9682C17.3915 29.7062 17.0919 29.4984 16.762 29.3566C16.4321 29.2148 16.0784 29.1418 15.7212 29.1418C15.3639 29.1418 15.0102 29.2148 14.6803 29.3566C14.3504 29.4984 14.0509 29.7062 13.7988 29.9682C13.5456 30.2289 13.3447 30.5388 13.2077 30.88C13.0706 31.2213 13 31.5872 13 31.9568C13 32.3263 13.0706 32.6922 13.2077 33.0335C13.3447 33.3748 13.5456 33.6847 13.7988 33.9454L23.5729 44.0565L23.7315 44.2206C23.9699 44.4676 24.2531 44.6637 24.5648 44.7974C24.8765 44.9312 25.2107 45 25.5481 45C25.8856 45 26.2197 44.9312 26.5314 44.7974C26.8432 44.6637 27.1263 44.4676 27.3647 44.2206L44.2465 26.7567C44.4854 26.5101 44.6749 26.2171 44.8042 25.8947C44.9334 25.5722 45 25.2265 45 24.8774C45 24.5283 44.9334 24.1827 44.8042 23.8602C44.6749 23.5378 44.4854 23.2448 44.2465 22.9982L44.035 22.7794C43.7967 22.5324 43.5135 22.3363 43.2018 22.2026C42.8901 22.0688 42.5559 22 42.2185 22C41.881 22 41.5468 22.0688 41.2351 22.2026C40.9234 22.3363 40.6403 22.5324 40.4019 22.7794L25.5443 38.1414L17.6435 29.9682Z" fill="#4AAADB"/>
</svg>
