<svg width="69" height="70" viewBox="0 0 69 70" fill="none" xmlns="http://www.w3.org/2000/svg">
<path d="M2.83331 66.6666L47.1666 22.3333M47.1666 22.3333H53.5C56.8594 22.3333 60.0812 20.9987 62.4567 18.6233C64.8321 16.2478 66.1666 13.026 66.1666 9.66658V3.33325H59.8333C56.4739 3.33325 53.2521 4.66777 50.8766 7.04323C48.5012 9.41869 47.1666 12.6405 47.1666 15.9999V22.3333ZM7.48831 36.6782L12.3333 31.8333L17.1783 36.6782C19.2474 38.7555 20.4091 41.568 20.4091 44.4999C20.4091 47.4318 19.2474 50.2443 17.1783 52.3216L12.3333 57.1666L7.48831 52.3216C5.41921 50.2443 4.25748 47.4318 4.25748 44.4999C4.25748 41.568 5.41921 38.7555 7.48831 36.6782ZM20.155 24.0116L25 19.1666L29.845 24.0116C31.9141 26.0888 33.0758 28.9013 33.0758 31.8333C33.0758 34.7652 31.9141 37.5777 29.845 39.6549L25 44.4999L20.155 39.6549C18.0859 37.5777 16.9241 34.7652 16.9241 31.8333C16.9241 28.9013 18.0859 26.0888 20.155 24.0116ZM32.8216 11.3449L37.6666 6.49992L42.5116 11.3449C44.5807 13.4222 45.7425 16.2347 45.7425 19.1666C45.7425 22.0985 44.5807 24.911 42.5116 26.9883L37.6666 31.8333L32.8216 26.9883C30.7525 24.911 29.5908 22.0985 29.5908 19.1666C29.5908 16.2347 30.7525 13.4222 32.8216 11.3449Z" stroke="#4AAADB" stroke-width="5" stroke-linecap="round" stroke-linejoin="round"/>
<path d="M32.8216 52.3215L37.6666 57.1665L32.8216 62.0115C30.7444 64.0806 27.9319 65.2423 25 65.2423C22.0681 65.2423 19.2556 64.0806 17.1783 62.0115L12.3333 57.1665L17.1783 52.3215C19.2556 50.2524 22.0681 49.0907 25 49.0907C27.9319 49.0907 30.7444 50.2524 32.8216 52.3215ZM45.4883 39.6548L50.3333 44.4998L45.4883 49.3448C43.4111 51.4139 40.5986 52.5757 37.6666 52.5757C34.7347 52.5757 31.9222 51.4139 29.845 49.3448L25 44.4998L29.845 39.6548C31.9222 37.5857 34.7347 36.424 37.6666 36.424C40.5986 36.424 43.4111 37.5857 45.4883 39.6548ZM58.155 26.9882L63 31.8332L58.155 36.6782C56.0777 38.7473 53.2652 39.909 50.3333 39.909C47.4014 39.909 44.5889 38.7473 42.5116 36.6782L37.6666 31.8332L42.5116 26.9882C44.5889 24.9191 47.4014 23.7573 50.3333 23.7573C53.2652 23.7573 56.0777 24.9191 58.155 26.9882Z" stroke="#4AAADB" stroke-width="5" stroke-linecap="round" stroke-linejoin="round"/>
</svg>
