<svg width="69" height="72" viewBox="0 0 69 72" fill="none" xmlns="http://www.w3.org/2000/svg">
<rect x="10" y="10" width="5" height="5" fill="#4AAADB"/>
<rect x="19" y="10" width="5" height="5" fill="#4AAADB"/>
<rect x="28" y="10" width="5" height="5" fill="#4AAADB"/>
<rect x="10" y="22" width="5" height="5" fill="#4AAADB"/>
<rect x="19" y="22" width="5" height="5" fill="#4AAADB"/>
<rect x="28" y="22" width="5" height="5" fill="#4AAADB"/>
<rect x="46" y="22" width="5" height="5" fill="#4AAADB"/>
<rect x="55" y="22" width="5" height="5" fill="#4AAADB"/>
<rect x="46" y="34" width="5" height="5" fill="#4AAADB"/>
<rect x="55" y="34" width="5" height="5" fill="#4AAADB"/>
<rect x="46" y="46" width="5" height="5" fill="#4AAADB"/>
<rect x="55" y="46" width="5" height="5" fill="#4AAADB"/>
<rect x="10" y="34" width="5" height="5" fill="#4AAADB"/>
<rect x="19" y="34" width="5" height="5" fill="#4AAADB"/>
<rect x="28" y="34" width="5" height="5" fill="#4AAADB"/>
<rect x="10" y="46" width="5" height="5" fill="#4AAADB"/>
<rect x="19" y="46" width="5" height="5" fill="#4AAADB"/>
<rect x="28" y="46" width="5" height="5" fill="#4AAADB"/>
<path d="M3.00003 3V69H40.5V3H3.00003Z" stroke="#4AAADB" stroke-width="5"/>
<path d="M13.5 69V61H29.5V69" stroke="#4AAADB" stroke-width="5"/>
<path d="M40.5 14.5H66V69H40.5" stroke="#4AAADB" stroke-width="5"/>
</svg>
