<svg width="28" height="15" viewBox="0 0 28 15" fill="none" xmlns="http://www.w3.org/2000/svg">
<path d="M2.916 1.03053C2.78871 0.910244 2.63897 0.816204 2.47533 0.753784C2.31169 0.691363 2.13736 0.661784 1.96229 0.666737C1.78722 0.671689 1.61484 0.711076 1.45499 0.782647C1.29514 0.854218 1.15096 0.956573 1.03067 1.08387C0.910377 1.21116 0.816336 1.3609 0.753916 1.52454C0.691495 1.68818 0.661916 1.86251 0.666869 2.03758C0.671821 2.21265 0.711208 2.38503 0.782779 2.54488C0.854351 2.70473 0.956706 2.84891 1.084 2.9692L13.084 14.3025C13.3316 14.5366 13.6593 14.667 14 14.667C14.3407 14.667 14.6684 14.5366 14.916 14.3025L26.9173 2.9692C27.0474 2.8497 27.1525 2.70555 27.2264 2.54512C27.3003 2.38468 27.3415 2.21116 27.3478 2.03463C27.3541 1.85811 27.3252 1.68209 27.2629 1.51682C27.2006 1.35154 27.106 1.2003 26.9847 1.07187C26.8635 0.943444 26.7179 0.840393 26.5565 0.768704C26.395 0.697017 26.2209 0.65812 26.0444 0.654274C25.8678 0.650428 25.6922 0.681709 25.5278 0.746301C25.3633 0.810893 25.2134 0.907508 25.0867 1.03053L14 11.4999L2.916 1.03053Z" fill="#26458D"/>
</svg>
