<svg width="372" height="78" viewBox="0 0 372 78" fill="none" xmlns="http://www.w3.org/2000/svg">
<g clip-path="url(#clip0_210_2946)">
<path d="M123.789 37.6528H114.381L106.236 26.647V37.6528H98.7227V11.9649H106.236V21.7605L113.749 11.9649H123.158L113.117 24.2038L123.789 37.6528Z" fill="#26458D"/>
<path d="M152.625 37.6528H144.995L143.309 33.3601H133.128L131.443 37.6528H123.813L134.696 11.9649H141.741L152.625 37.6528ZM141.109 27.8571L138.207 20.5275L135.305 27.8571H141.109Z" fill="#26458D"/>
<path d="M180.219 37.6528H172.706V18.7008H166.41V27.2635C166.41 32.6522 164.725 36.4426 159.903 37.7441C158.101 38.2465 155.995 38.2465 153.865 37.9725V31.2365C155.082 31.3507 156.697 31.305 157.54 30.7799C158.64 30.0949 158.874 28.9532 158.874 27.4461V11.9649H180.219V37.6528Z" fill="#26458D"/>
<path d="M206.55 29.0902C206.55 33.7482 203.367 37.6528 196.509 37.6528H184.596V11.9649H192.109V21.144H197.773C203.343 21.1212 206.55 24.4093 206.55 29.0902ZM199.013 29.0902C199.013 27.4005 197.562 26.647 195.807 26.647H192.132V31.5334H195.807C197.562 31.5334 199.013 30.757 199.013 29.0902Z" fill="#26458D"/>
<path d="M241.025 37.6528H233.512L232.248 24.2038L227.848 37.6528H221.576L217.199 24.1809L215.935 37.63H208.422L210.926 11.942H218.439L224.712 27.2406L230.985 11.942H238.498L241.025 37.6528Z" fill="#26458D"/>
<path d="M270.492 37.6528H262.862L261.177 33.3601H250.996L249.311 37.6528H241.681L252.564 11.9649H259.609L270.492 37.6528ZM258.977 27.8571L256.075 20.5275L253.173 27.8571H258.977Z" fill="#26458D"/>
<path d="M289.31 11.9649V18.7008H282.406V37.6528H274.893V18.7008H267.988V11.9649H289.31Z" fill="#26458D"/>
<path d="M314.4 20.5275C314.4 25.5053 311.194 29.7067 305.623 29.7067H299.983V37.6528H292.47V11.9649H304.383C311.217 11.9649 314.4 15.5498 314.4 20.5275ZM306.864 20.8244C306.864 18.952 305.413 18.0615 303.657 18.0615H299.983V23.5644H303.657C305.413 23.5644 306.864 22.7424 306.864 20.8244Z" fill="#26458D"/>
<path d="M344.804 24.7974C344.804 32.2184 338.344 38.2465 330.386 38.2465C322.428 38.2465 315.969 32.1955 315.969 24.7974C315.969 17.3765 322.428 11.3484 330.386 11.3484C338.344 11.3484 344.804 17.3765 344.804 24.7974ZM337.291 24.7974C337.291 21.0984 334.201 18.0615 330.386 18.0615C326.594 18.0615 323.482 21.0755 323.482 24.7974C323.482 28.4965 326.571 31.5334 330.386 31.5334C334.178 31.5334 337.291 28.4965 337.291 24.7974Z" fill="#26458D"/>
<path d="M371.462 11.9649V37.6528H363.949V28.1768H355.172V37.6528H347.659V11.9649H355.172V21.4409H363.949V11.9649H371.462Z" fill="#26458D"/>
<path d="M112.11 66.2635H108.951V53.1797H101.835V66.2635H98.6758V50.0972H112.11V66.2635Z" fill="#4AAADB"/>
<path d="M127.487 55.4859C127.487 58.226 125.475 60.8747 121.964 60.8747H118.43V66.2635H115.27V50.0972H121.191C125.498 50.0972 127.487 52.3577 127.487 55.4859ZM124.351 55.4859C124.351 53.9789 123.111 53.1797 121.589 53.1797H118.43V57.7922H121.589C123.111 57.7922 124.351 56.8331 124.351 55.4859Z" fill="#4AAADB"/>
<path d="M146.235 58.1803C146.235 62.8384 142.326 66.6516 137.552 66.6516C132.777 66.6516 128.868 62.8384 128.868 58.1803C128.868 53.5222 132.777 49.709 137.552 49.709C142.35 49.709 146.235 53.4994 146.235 58.1803ZM143.099 58.1803C143.099 55.1891 140.641 52.7916 137.575 52.7916C134.509 52.7916 132.052 55.1891 132.052 58.1803C132.052 61.1715 134.509 63.5691 137.575 63.5691C140.618 63.5691 143.099 61.1715 143.099 58.1803Z" fill="#4AAADB"/>
<path d="M161.448 61.3999C161.448 64.1856 159.318 66.2635 155.784 66.2635H148.435V50.0972H154.357C158.148 50.0972 160.676 51.353 160.676 54.3443C160.676 55.9655 159.787 57.1071 158.686 57.5866C160.699 58.089 161.448 59.7102 161.448 61.3999ZM151.571 56.2623H154.52C156.393 56.2623 157.469 55.7828 157.469 54.7324C157.469 53.4766 156.393 53.2026 154.52 53.2026H151.571V56.2623ZM158.289 61.0574C158.289 59.6188 156.978 58.9338 154.942 58.9338H151.595V63.1809H154.942C156.978 63.1809 158.289 62.5416 158.289 61.0574Z" fill="#4AAADB"/>
<path d="M166.761 53.1797V56.6276H172.682V59.7102H166.761V63.1809H173.876V66.2635H163.601V50.0972H173.853V53.1797H166.761Z" fill="#4AAADB"/>
<path d="M188.879 55.4859C188.879 58.226 186.866 60.8747 183.355 60.8747H179.798V66.2635H176.638V50.0972H182.559C186.866 50.0972 188.879 52.3577 188.879 55.4859ZM185.719 55.4859C185.719 53.9789 184.479 53.1797 182.957 53.1797H179.798V57.7922H182.957C184.479 57.7922 185.719 56.8331 185.719 55.4859Z" fill="#4AAADB"/>
<path d="M194.005 53.1797V56.6276H199.926V59.7102H194.005V63.1809H201.12V66.2635H190.868V50.0972H201.12V53.1797H194.005Z" fill="#4AAADB"/>
<path d="M217.293 50.0972V66.2635H214.133V59.7102H207.018V66.2635H203.858V50.0972H207.018V56.6276H214.133V50.0743H217.293V50.0972Z" fill="#4AAADB"/>
<path d="M236.836 58.1803C236.836 62.8384 232.927 66.6516 228.153 66.6516C223.378 66.6516 219.469 62.8384 219.469 58.1803C219.469 53.5222 223.378 49.709 228.153 49.709C232.927 49.709 236.836 53.4994 236.836 58.1803ZM233.676 58.1803C233.676 55.1891 231.219 52.7916 228.153 52.7916C225.086 52.7916 222.629 55.1891 222.629 58.1803C222.629 61.1715 225.086 63.5691 228.153 63.5691C231.219 63.5691 233.676 61.1715 233.676 58.1803Z" fill="#4AAADB"/>
<path d="M259.726 61.3999C259.726 64.1856 257.596 66.2635 254.062 66.2635H246.689V50.0972H252.611C256.403 50.0972 258.93 51.353 258.93 54.3443C258.93 55.9655 258.041 57.1071 256.941 57.5866C258.977 58.089 259.726 59.7102 259.726 61.3999ZM249.849 56.2623H252.798C254.671 56.2623 255.747 55.7828 255.747 54.7324C255.747 53.4766 254.671 53.2026 252.798 53.2026H249.849V56.2623ZM256.566 61.0574C256.566 59.6188 255.256 58.9338 253.219 58.9338H249.873V63.1809H253.219C255.256 63.1809 256.566 62.5416 256.566 61.0574Z" fill="#4AAADB"/>
<path d="M274.12 55.4859C274.12 58.226 272.107 60.8747 268.596 60.8747H265.039V66.2635H261.879V50.0972H267.801C272.131 50.0972 274.12 52.3577 274.12 55.4859ZM270.96 55.4859C270.96 53.9789 269.72 53.1797 268.199 53.1797H265.039V57.7922H268.199C269.743 57.7922 270.96 56.8331 270.96 55.4859Z" fill="#4AAADB"/>
<path d="M279.246 53.1797V56.6276H285.167V59.7102H279.246V63.1809H286.361V66.2635H276.11V50.0972H286.361V53.1797H279.246Z" fill="#4AAADB"/>
<path d="M308.057 66.2635H304.71L303.33 55.6686L298.976 66.2635H297.408L293.055 55.6686L291.674 66.2635H288.327L290.691 50.0972H293.85L298.204 60.4865L302.534 50.0972H305.693L308.057 66.2635Z" fill="#4AAADB"/>
<path d="M313.581 53.1797V56.6276H319.503V59.7102H313.581V63.1809H320.696V66.2635H310.445V50.0972H320.696V53.1797H313.581Z" fill="#4AAADB"/>
<path d="M336.869 50.0972V66.2635H333.709V59.7102H326.594V66.2635H323.458V50.0972H326.618V56.6276H333.733V50.0743H336.869V50.0972Z" fill="#4AAADB"/>
<path d="M343.189 53.1797V56.6276H349.11V59.7102H343.189V63.1809H350.304V66.2635H340.052V50.0972H350.304V53.1797H343.189Z" fill="#4AAADB"/>
<path d="M372 66.2635H368.653L367.272 55.6686L362.919 66.2635H361.351L356.997 55.6686L355.616 66.2635H352.27L354.633 50.0972H357.793L362.146 60.4865L366.476 50.0972H369.636L372 66.2635Z" fill="#4AAADB"/>
<path d="M65.7218 11.0742C58.279 8.97355 49.8532 10.7317 44.0019 15.641C34.1484 23.2675 28.3205 34.6615 17.0861 39.7077C14.3243 40.7352 11.4455 40.7124 8.8241 39.8904C1.70896 37.7212 -1.70818 29.9121 0.842971 23.062C9.7603 -0.981957 47.6531 -8.28875 65.7218 11.0742Z" fill="url(#paint0_linear_210_2946)"/>
<path d="M77.6581 38.9772C78.173 77.3835 24.9733 92.6821 3.93213 60.6464C30.1458 69.6657 36.3247 40.1417 49.9933 24.2951C58.1148 14.8876 74.0771 18.6551 76.7453 30.6885C77.3538 33.3601 77.6581 36.1229 77.6581 38.9772Z" fill="url(#paint1_linear_210_2946)"/>
</g>
<defs>
<linearGradient id="paint0_linear_210_2946" x1="17.8774" y1="4.16063" x2="36.3847" y2="27.056" gradientUnits="userSpaceOnUse">
<stop stop-color="#567DBE"/>
<stop offset="1" stop-color="#46BBE6"/>
</linearGradient>
<linearGradient id="paint1_linear_210_2946" x1="24.9788" y1="28.7083" x2="67.8721" y2="75.2998" gradientUnits="userSpaceOnUse">
<stop stop-color="#3057A4"/>
<stop offset="1" stop-color="#224187"/>
</linearGradient>
<clipPath id="clip0_210_2946">
<rect width="372" height="78" fill="white"/>
</clipPath>
</defs>
</svg>
