<svg width="74" height="74" viewBox="0 0 74 74" fill="none" xmlns="http://www.w3.org/2000/svg">
<path d="M3 71C3.03801 67.7234 3.90728 64.5092 5.52735 61.655C7.23582 58.6868 9.69855 56.2163 12.6693 54.4904C15.64 52.7646 19.0147 51.8439 22.4558 51.8204C29.3968 51.8362 35.9668 55.6479 39.3843 61.655C41.0035 64.5076 41.8727 67.7199 41.9116 70.9947M52.6145 7.31713V3M67.4448 12.6188L71 10.1391M37.7736 12.6188L34.213 10.1391M22.4505 42.6491C23.7636 42.6794 25.0695 42.4485 26.2915 41.9701C27.5135 41.4917 28.6269 40.7755 29.5663 39.8634C30.5058 38.9513 31.2522 37.8619 31.7619 36.6591C32.2715 35.4562 32.5341 34.1643 32.5341 32.8592C32.5341 31.5542 32.2715 30.2622 31.7619 29.0594C31.2522 27.8566 30.5058 26.7672 29.5663 25.8551C28.6269 24.943 27.5135 24.2267 26.2915 23.7483C25.0695 23.27 23.7636 23.0391 22.4505 23.0694C19.8771 23.1287 17.4291 24.1861 15.6301 26.0156C13.8311 27.8451 12.8239 30.3014 12.8239 32.8592C12.8239 35.4171 13.8311 37.8734 15.6301 39.7028C17.4291 41.5323 19.8771 42.5898 22.4505 42.6491ZM63.3862 26.6652C63.3772 25.2404 63.085 23.8314 62.5265 22.5191C61.968 21.2067 61.1541 20.0169 60.1316 19.018C59.109 18.0191 57.898 17.2307 56.568 16.6981C55.238 16.1655 53.8152 15.8992 52.3813 15.9145C50.948 15.9587 49.5376 16.2838 48.2311 16.8711C46.9245 17.4584 45.7476 18.2963 44.7679 19.3368C43.7882 20.3774 43.025 21.5999 42.5221 22.9343C42.0192 24.2687 41.7865 25.6887 41.8375 27.1127C41.943 29.0168 42.5495 30.8601 43.5964 32.4584C44.6433 34.0567 46.094 35.354 47.8035 36.2208V41.4856C47.8131 41.7952 47.9433 42.089 48.1667 42.3051C48.3901 42.5212 48.6892 42.6426 49.0009 42.6439H56.2121C56.5248 42.644 56.8252 42.5232 57.0497 42.3069C57.2742 42.0907 57.4052 41.7961 57.4148 41.4856V36.126C59.1774 35.2316 60.6636 33.88 61.7158 32.2144C62.768 30.5487 63.3417 28.6313 63.3862 26.6652Z" stroke="#4AAADB" stroke-width="5" stroke-linecap="round" stroke-linejoin="round"/>
</svg>
