<svg width="59" height="68" viewBox="0 0 59 68" fill="none" xmlns="http://www.w3.org/2000/svg">
<rect x="14.4999" y="61" width="28" height="7" fill="#4AAADB"/>
<rect x="30.4999" y="51" width="28" height="7" fill="#4AAADB"/>
<rect x="0.499878" y="51" width="28" height="7" fill="#4AAADB"/>
<rect x="0.499878" y="61" width="11" height="7" fill="#4AAADB"/>
<rect x="44.4999" y="61" width="14" height="7" fill="#4AAADB"/>
<path d="M28.9999 37C30.989 37 32.8967 36.2098 34.3032 34.8033C35.7097 33.3968 36.4999 31.4891 36.4999 29.5C36.4999 24.5 28.9999 17 28.9999 17C28.9999 17 21.4999 24.5 21.4999 29.5C21.4999 31.4891 22.2901 33.3968 23.6966 34.8033C25.1031 36.2098 27.0108 37 28.9999 37Z" stroke="#4AAADB" stroke-width="5" stroke-linecap="round" stroke-linejoin="round"/>
<path d="M50.9999 14C52.1934 14 53.3379 13.5259 54.1819 12.682C55.0258 11.8381 55.4999 10.6935 55.4999 9.5C55.4999 6.5 50.9999 2 50.9999 2C50.9999 2 46.4999 6.5 46.4999 9.5C46.4999 10.6935 46.974 11.8381 47.8179 12.682C48.6618 13.5259 49.8064 14 50.9999 14Z" stroke="#4AAADB" stroke-width="3" stroke-linecap="round" stroke-linejoin="round"/>
<path d="M6.99988 23C8.19335 23 9.33795 22.5259 10.1819 21.682C11.0258 20.8381 11.4999 19.6935 11.4999 18.5C11.4999 15.5 6.99988 11 6.99988 11C6.99988 11 2.49988 15.5 2.49988 18.5C2.49988 19.6935 2.97398 20.8381 3.8179 21.682C4.66181 22.5259 5.8064 23 6.99988 23Z" stroke="#4AAADB" stroke-width="3" stroke-linecap="round" stroke-linejoin="round"/>
</svg>
