<svg width="40" height="40" viewBox="0 0 40 40" fill="none" xmlns="http://www.w3.org/2000/svg">
<path d="M20 2.5L5 7.5V22.5C5 30.7852 11.7148 37.5 20 37.5C28.2852 37.5 35 30.7852 35 22.5V7.5L20 2.5ZM32.1875 22.5C32.1875 29.2305 26.7305 34.6875 20 34.6875C13.2695 34.6875 7.8125 29.2305 7.8125 22.5V9.60938L20 5.3125L32.1875 9.60938V22.5Z" fill="#4AAADB"/>
<path d="M14.7803 18.5586C14.65 18.4277 14.495 18.3238 14.3244 18.2529C14.1538 18.182 13.9709 18.1455 13.7862 18.1455C13.6014 18.1455 13.4185 18.182 13.2479 18.2529C13.0773 18.3238 12.9224 18.4277 12.792 18.5586C12.6611 18.6889 12.5572 18.8439 12.4863 19.0145C12.4154 19.1851 12.3789 19.368 12.3789 19.5527C12.3789 19.7375 12.4154 19.9204 12.4863 20.091C12.5572 20.2616 12.6611 20.4165 12.792 20.5469L17.8467 25.6016L17.9287 25.6836C18.052 25.8071 18.1985 25.9051 18.3597 25.972C18.5209 26.0388 18.6937 26.0732 18.8682 26.0732C19.0427 26.0732 19.2155 26.0388 19.3767 25.972C19.5379 25.9051 19.6844 25.8071 19.8076 25.6836L28.5381 16.9531C28.6616 16.8298 28.7596 16.6834 28.8265 16.5222C28.8933 16.361 28.9278 16.1882 28.9278 16.0137C28.9278 15.8392 28.8933 15.6663 28.8265 15.5051C28.7596 15.3439 28.6616 15.1975 28.5381 15.0742L28.4287 14.9648C28.3055 14.8413 28.159 14.7433 27.9978 14.6765C27.8366 14.6096 27.6638 14.5752 27.4893 14.5752C27.3148 14.5752 27.142 14.6096 26.9808 14.6765C26.8196 14.7433 26.6731 14.8413 26.5498 14.9648L18.8662 22.6445L14.7803 18.5586Z" fill="#4AAADB"/>
</svg>
