<svg width="74" height="72" viewBox="0 0 74 72" fill="none" xmlns="http://www.w3.org/2000/svg">
<path d="M70.9967 30.7897H36.417C32.5548 30.7897 30.6237 30.7897 29.0394 31.7311C27.4517 32.676 26.4997 34.3885 24.5924 37.8206L8.81038 68.834M70.9967 30.7897C70.9967 28.8444 64.197 23.8423 64.197 23.8423M70.9967 30.7897C70.9967 32.735 64.197 37.7372 64.197 37.7372M6.3999 59.6008C6.3999 59.6008 7.20906 67.8891 8.80698 68.834C10.4049 69.7823 17.7995 66.3572 17.7995 66.3572" stroke="#4AAADB" stroke-width="5" stroke-linecap="round" stroke-linejoin="round"/>
<path d="M50.3834 30.7898C50.5262 29.7083 50.5976 28.6071 50.5976 27.4863C50.5976 13.9631 39.9426 3 26.7988 3C13.6551 3 3 13.9631 3 27.4863C3 37.2509 8.55872 45.9665 16.5993 49.8953" stroke="#4AAADB" stroke-width="5" stroke-linecap="round" stroke-linejoin="round"/>
</svg>
