<svg width="40" height="40" viewBox="0 0 40 40" fill="none" xmlns="http://www.w3.org/2000/svg">
<path d="M35.7137 35.7142C35.7137 36.4719 35.4127 37.1987 34.8769 37.7345C34.3411 38.2703 33.6143 38.5713 32.8566 38.5713H7.1423C6.38454 38.5713 5.65781 38.2703 5.12199 37.7345C4.58618 37.1987 4.28516 36.4719 4.28516 35.7142V4.28561C4.28516 3.52785 4.58618 2.80112 5.12199 2.2653C5.65781 1.72949 6.38454 1.42847 7.1423 1.42847H25.7137L35.7137 11.4285V35.7142Z" stroke="#26458D" stroke-width="2" stroke-linecap="round" stroke-linejoin="round"/>
<path d="M15.1428 10.0486C11.4457 11.1429 26.8571 29.7143 28.4999 25.4657C30.1457 21.2143 8.25709 26.6943 11.8628 29.7143C15.4657 32.7371 18.8371 8.95143 15.1428 10.0486Z" stroke="#26458D" stroke-width="2" stroke-linecap="round" stroke-linejoin="round"/>
</svg>
